<svg width="21.500000" height="21.120026" viewBox="0 0 21.5 21.12" fill="none" xmlns="http://www.w3.org/2000/svg" xmlns:xlink="http://www.w3.org/1999/xlink">
	<desc>
			Created with Pixso.
	</desc>
	<defs/>
	<path id="Vector" d="M7.75 0.75C2.75 0.75 0.75 2.75 0.75 7.75L0.75 13.75C0.75 17.53 1.89 19.6 4.6 20.37C4.83 17.77 7.5 15.72 10.75 15.72C14 15.72 16.67 17.77 16.89 20.37C19.61 19.6 20.75 17.53 20.75 13.75L20.75 7.75C20.75 2.75 18.75 0.75 13.75 0.75L7.75 0.75ZM7.16 9.32C7.16 7.35 8.77 5.75 10.75 5.75C12.73 5.75 14.33 7.35 14.33 9.32C14.33 11.31 12.73 12.92 10.75 12.92C8.77 12.92 7.16 11.31 7.16 9.32Z" stroke="#FFFFFF" stroke-opacity="1.000000" stroke-width="1.500000" stroke-linejoin="round"/>
</svg>
